<?xml version="1.0" standalone="no"?>
<!DOCTYPE svg PUBLIC "-//W3C//DTD SVG 20010904//EN"
 "http://www.w3.org/TR/2001/REC-SVG-20010904/DTD/svg10.dtd">
<svg version="1.0" xmlns="http://www.w3.org/2000/svg"
 width="1181.000000pt" height="1181.000000pt" viewBox="0 0 1181.000000 1181.000000"
 preserveAspectRatio="xMidYMid meet">

<g transform="translate(0.000000,1181.000000) scale(0.100000,-0.100000)"
fill="#000000" stroke="none">
<path d="M5430 11790 c-427 -36 -788 -100 -1160 -205 -1235 -349 -2315 -1088
-3094 -2115 -397 -524 -679 -1060 -891 -1695 -140 -419 -222 -801 -270 -1257
-21 -208 -21 -998 0 -1206 112 -1074 495 -2060 1135 -2917 937 -1257 2335
-2089 3880 -2309 315 -45 422 -51 860 -51 444 1 560 9 900 61 1226 189 2364
768 3250 1654 920 920 1508 2112 1674 3390 62 477 62 1073 0 1550 -113 877
-432 1731 -919 2465 -452 682 -1015 1244 -1691 1688 -705 463 -1507 770 -2344
896 -294 44 -423 53 -830 56 -217 2 -442 -1 -500 -5z m1000 -104 c1126 -127
2083 -504 2955 -1163 1148 -869 1937 -2160 2194 -3593 161 -895 108 -1794
-156 -2680 -308 -1035 -921 -1987 -1735 -2697 -889 -774 -1994 -1261 -3168
-1397 -472 -55 -1011 -46 -1480 25 -1917 289 -3539 1476 -4376 3204 -581 1199
-734 2530 -440 3814 438 1906 1784 3448 3613 4140 475 179 1035 307 1533 351
69 5 143 12 165 14 110 10 759 -3 895 -18z"/>
<path d="M6105 11615 c-50 -18 -100 -71 -114 -122 -6 -21 -11 -79 -11 -128 0
-74 4 -99 23 -135 20 -41 32 -50 131 -100 139 -69 149 -82 154 -199 5 -102 -7
-151 -45 -181 -32 -25 -108 -27 -142 -4 -29 21 -51 72 -51 119 0 34 -1 35 -41
35 l-42 0 7 -61 c11 -111 66 -174 163 -185 96 -12 188 37 215 114 14 41 17
217 5 274 -13 61 -52 97 -162 148 -55 26 -106 54 -113 62 -24 29 -36 127 -23
190 17 78 48 108 113 108 38 0 54 -5 73 -24 22 -22 45 -81 45 -118 0 -14 9
-18 40 -18 l40 0 -6 43 c-18 128 -63 179 -170 192 -31 3 -63 0 -89 -10z"/>
<path d="M5520 11593 c-96 -8 -177 -17 -179 -19 -2 -1 -1 -18 3 -36 l6 -33 73
6 c39 3 73 5 74 4 1 0 18 -198 37 -439 19 -241 36 -439 38 -441 2 -1 20 0 40
2 34 5 37 7 33 32 -11 64 -67 843 -61 848 4 4 34 9 69 11 34 2 66 8 71 12 11
11 -3 70 -17 69 -7 -1 -91 -8 -187 -16z"/>
<path d="M4918 11524 c-100 -31 -141 -130 -114 -274 27 -146 61 -179 222 -221
58 -14 89 -28 107 -47 54 -56 77 -244 36 -295 -27 -35 -89 -52 -134 -37 -39
13 -60 41 -77 104 -11 43 -13 44 -42 39 -17 -3 -34 -8 -37 -12 -10 -9 19 -113
39 -140 34 -46 69 -65 132 -69 108 -8 200 49 216 134 18 97 -24 290 -73 336
-38 35 -56 43 -152 68 -46 11 -94 28 -107 36 -34 23 -58 95 -58 181 -1 72 0
76 32 104 25 23 42 29 76 29 57 0 92 -28 109 -88 11 -38 19 -48 38 -50 45 -4
55 11 41 65 -17 63 -55 111 -106 134 -49 22 -84 23 -148 3z"/>
<path d="M7013 11023 c-121 -246 -211 -439 -206 -444 5 -5 22 -11 39 -15 30
-6 30 -5 84 113 29 65 54 119 55 120 0 1 47 -10 103 -24 l102 -26 -6 -133 -7
-133 34 -9 c19 -5 37 -6 40 -3 6 5 49 962 44 969 -1 1 -17 7 -35 12 l-32 9
-215 -436z m197 40 c-7 -120 -13 -223 -15 -229 -2 -8 -29 -4 -85 10 -44 12
-82 24 -83 27 -3 8 187 418 191 414 2 -2 -2 -101 -8 -222z"/>
<path d="M4285 11383 c-119 -62 -129 -134 -60 -410 93 -371 136 -472 217 -512
59 -28 103 -27 169 7 42 21 59 37 77 72 38 77 26 169 -68 505 -66 235 -95 294
-164 336 -39 24 -128 25 -171 2z m139 -74 c49 -39 83 -130 162 -437 55 -214
58 -280 15 -323 -24 -24 -38 -29 -76 -29 -79 0 -106 42 -169 261 -113 396
-121 500 -41 535 44 19 79 17 109 -7z"/>
<path d="M7670 11304 c-6 -16 -80 -218 -164 -449 -84 -231 -150 -423 -147
-427 4 -4 20 -10 37 -14 l31 -6 122 339 c68 186 125 340 127 342 2 2 2 -72 -1
-165 -3 -93 -7 -267 -10 -387 l-5 -218 36 -15 c20 -8 37 -14 38 -12 7 9 319
875 320 887 0 8 -14 20 -32 28 -28 11 -33 11 -38 -1 -3 -8 -60 -163 -125 -343
l-120 -328 7 386 c6 370 5 386 -13 391 -10 3 -26 9 -36 13 -13 6 -20 1 -27
-21z"/>
<path d="M3680 11176 c-64 -23 -152 -57 -158 -61 -2 -2 262 -678 345 -882 5
-12 58 1 68 17 3 5 -29 95 -71 200 -41 106 -74 193 -72 194 2 1 35 15 73 31
84 35 120 68 135 124 28 106 -67 334 -160 381 -50 26 -80 25 -160 -4z m130
-71 c35 -18 95 -133 112 -216 17 -80 -4 -113 -94 -150 l-67 -27 -71 180 c-40
99 -70 181 -68 182 1 1 26 12 53 23 61 26 97 28 135 8z"/>
<path d="M8112 10654 c-117 -233 -212 -426 -212 -429 0 -3 46 -28 102 -56 120
-60 170 -66 238 -28 57 32 109 114 230 360 114 233 140 315 122 376 -19 65
-48 91 -161 148 l-107 53 -212 -424z m387 240 c31 -39 26 -84 -20 -192 -102
-238 -227 -463 -275 -493 -43 -26 -68 -24 -142 11 l-62 29 106 213 c59 117
140 282 180 366 l73 153 59 -30 c33 -17 69 -42 81 -57z"/>
<path d="M2800 10741 c-69 -43 -124 -82 -122 -87 7 -21 494 -804 501 -804 5 0
18 8 59 35 1 1 -50 87 -114 190 -88 143 -113 190 -103 196 73 42 153 97 156
105 2 6 -5 21 -15 34 l-19 23 -86 -53 c-48 -29 -89 -51 -91 -49 -11 12 -186
302 -186 308 0 3 40 30 88 58 48 29 93 57 101 62 11 7 10 13 -4 35 -10 14 -22
26 -29 26 -6 0 -67 -36 -136 -79z"/>
<path d="M9086 10616 c-9 -14 -16 -27 -16 -30 0 -3 27 -24 60 -47 39 -27 57
-46 52 -53 -32 -41 -502 -706 -502 -710 0 -3 13 -14 29 -26 l30 -20 256 360
c165 231 261 358 268 353 7 -4 33 -22 58 -40 26 -18 50 -33 55 -33 5 0 17 12
26 27 l16 27 -146 104 c-80 57 -151 106 -157 108 -7 3 -19 -6 -29 -20z"/>
<path d="M5610 10562 c0 -5 -47 -12 -104 -15 -440 -27 -974 -161 -1447 -362
-1068 -455 -1961 -1343 -2426 -2415 -201 -463 -343 -1024 -370 -1466 -3 -57
-10 -104 -15 -104 -4 0 -8 -133 -8 -295 0 -162 4 -295 8 -295 5 0 12 -47 15
-104 32 -519 214 -1170 470 -1681 582 -1164 1636 -2042 2882 -2399 278 -80
649 -148 891 -163 57 -3 104 -10 104 -15 0 -4 133 -8 295 -8 162 0 295 4 295
8 0 5 47 12 104 15 440 27 974 161 1447 362 1068 455 1961 1343 2426 2415 201
463 343 1024 370 1466 3 57 10 104 15 104 4 0 8 133 8 295 0 162 -4 295 -8
295 -5 0 -12 47 -15 104 -32 519 -214 1170 -470 1681 -582 1164 -1636 2042
-2882 2399 -278 80 -649 148 -891 163 -57 3 -104 10 -104 15 0 4 -133 8 -295
8 -162 0 -295 -4 -295 -8z m505 -52 c326 -17 567 -53 880 -130 1099 -271 2036
-910 2682 -1830 645 -917 939 -2073 808 -3170 -164 -1361 -904 -2566 -2035
-3315 -448 -297 -922 -504 -1455 -635 -735 -181 -1445 -181 -2180 0 -815 201
-1532 597 -2124 1175 -810 790 -1287 1813 -1385 2966 l-4 56 3254 5 c1790 3
3257 8 3260 10 5 6 -50 124 -237 506 -82 168 -149 306 -149 309 0 2 -57 117
-127 256 -70 138 -156 311 -191 382 -36 72 -73 141 -82 155 -23 33 -50 116
-50 152 0 39 24 37 96 -10 79 -52 202 -175 297 -300 42 -56 77 -103 77 -106 0
-2 26 -46 59 -97 32 -52 80 -134 106 -184 79 -151 106 -195 118 -196 27 -3 48
3 94 26 26 14 52 25 57 25 9 0 165 72 206 94 43 25 48 58 15 118 -53 97 -67
123 -86 150 -11 14 -19 29 -19 32 0 3 -39 71 -87 151 -49 80 -97 163 -109 184
-45 86 -140 196 -300 346 -93 87 -173 165 -177 173 -5 7 -6 24 -3 36 7 27 109
126 130 126 8 0 51 -33 94 -72 43 -40 126 -114 184 -165 114 -99 212 -219 348
-422 44 -66 80 -122 80 -125 0 -3 15 -27 33 -53 17 -26 41 -66 53 -88 55 -106
130 -228 143 -233 7 -3 53 14 100 37 47 23 141 69 208 101 67 33 129 67 137
76 21 20 21 86 0 132 -75 166 -173 346 -268 492 -27 41 -58 90 -68 109 -44 78
-158 198 -502 529 -177 171 -179 173 -173 208 7 43 79 139 119 160 35 18 56
13 128 -35 83 -54 350 -310 433 -414 108 -135 267 -372 340 -507 64 -118 304
-596 312 -620 4 -14 20 -52 35 -85 16 -33 40 -89 55 -125 49 -118 66 -151 79
-156 14 -5 122 14 231 42 33 8 85 21 115 29 51 13 215 50 267 61 37 7 47 39
33 103 -14 64 -130 441 -140 456 -4 6 -12 25 -18 43 -22 65 -107 259 -153 347
-126 245 -125 242 -265 455 -90 137 -172 244 -368 480 -100 122 -398 393 -601
546 -78 59 -320 224 -329 224 -2 0 -49 26 -103 58 -54 32 -141 79 -193 104
-166 81 -324 155 -350 163 -14 4 -49 18 -77 31 -107 48 -393 126 -603 164 -25
5 -72 13 -105 20 -145 27 -325 51 -435 58 -206 11 -532 13 -665 2 -287 -23
-327 -28 -475 -59 -30 -7 -80 -17 -110 -23 -83 -15 -243 -56 -350 -89 -160
-50 -255 -81 -265 -89 -5 -3 -32 -15 -60 -25 -27 -10 -82 -33 -122 -51 -39
-19 -75 -34 -80 -34 -5 0 -33 -13 -63 -29 -30 -15 -104 -54 -165 -86 -316
-165 -752 -492 -743 -557 2 -18 14 -26 48 -36 25 -8 54 -18 65 -22 11 -5 40
-14 65 -20 76 -20 202 -61 255 -85 28 -12 68 -28 90 -35 80 -26 348 -169 472
-253 326 -218 604 -488 721 -700 13 -23 46 -81 73 -128 27 -48 49 -89 49 -93
0 -3 16 -38 35 -78 44 -90 108 -261 136 -365 17 -63 22 -118 26 -284 7 -250 5
-261 -84 -446 -32 -68 -157 -195 -253 -258 -155 -103 -333 -181 -500 -220 -76
-17 -478 -21 -557 -5 -26 5 -95 19 -153 31 -58 12 -134 32 -169 45 -35 13 -72
24 -83 24 -11 0 -68 16 -127 36 -58 19 -124 39 -146 43 -22 5 -92 21 -155 35
-82 19 -156 29 -256 33 -126 5 -148 4 -211 -16 -39 -11 -78 -21 -85 -21 -20 0
-124 -43 -227 -92 -91 -44 -200 -115 -384 -251 -175 -129 -222 -147 -372 -147
l-103 0 -7 63 c-8 77 10 455 31 621 166 1362 904 2563 2034 3311 683 452 1499
722 2309 764 217 12 239 12 446 1z"/>
<path d="M9835 6340 c-32 -10 -234 -29 -372 -37 l-83 -4 -1 -167 c-1 -302 -21
-543 -59 -717 -5 -22 -14 -69 -20 -105 -36 -205 -137 -536 -215 -705 -13 -27
-33 -75 -45 -105 -12 -30 -29 -66 -37 -80 -9 -14 -38 -65 -64 -115 -103 -198
-201 -345 -344 -515 -153 -182 -210 -240 -366 -379 -301 -266 -483 -411 -519
-411 -33 0 -87 83 -184 285 -26 55 -51 107 -55 115 -4 8 -19 21 -33 29 -23 13
-29 12 -69 -9 -24 -13 -84 -44 -133 -70 -50 -26 -94 -54 -100 -62 -11 -17 5
-56 99 -253 84 -175 87 -184 82 -199 -3 -7 -43 -33 -89 -56 -46 -23 -87 -46
-93 -50 -17 -13 -215 -86 -332 -124 -106 -34 -248 -65 -463 -100 -70 -12 -181
-17 -420 -19 -306 -2 -377 1 -510 23 -30 5 -89 14 -130 21 -128 20 -349 76
-454 114 -39 15 -92 33 -118 41 -25 8 -59 21 -75 29 -15 8 -32 15 -36 15 -10
0 -40 13 -207 93 -69 32 -145 68 -170 80 -114 54 -327 190 -464 296 -43 34
-89 61 -101 61 -30 0 -495 -484 -495 -515 0 -26 34 -58 172 -163 149 -115 339
-235 523 -332 50 -26 110 -59 135 -73 25 -14 70 -35 100 -47 30 -12 87 -36
125 -54 39 -19 88 -39 110 -47 22 -7 45 -16 50 -20 6 -4 96 -33 200 -66 294
-93 668 -171 880 -183 191 -12 592 -11 690 1 44 6 123 14 175 19 184 17 276
30 345 49 39 11 126 30 195 42 69 12 171 38 228 56 57 18 112 33 124 33 11 0
34 7 51 14 18 8 91 36 162 62 72 25 135 49 140 54 6 4 26 12 45 19 78 26 355
162 409 200 14 10 49 31 76 46 79 44 284 185 369 256 43 35 90 73 105 83 97
71 468 466 589 629 81 108 190 264 224 320 103 168 144 243 254 467 121 248
160 336 233 525 41 107 109 407 151 660 6 39 16 93 22 120 5 28 14 104 18 170
12 157 26 293 35 328 4 15 4 120 0 232 l-7 205 -112 -1 c-61 0 -124 -5 -141
-9z"/>
<path d="M6489 4972 c-112 -56 -169 -94 -175 -118 -4 -14 17 -66 58 -150 71
-146 82 -153 153 -110 22 14 78 44 124 68 83 43 106 68 90 98 -4 8 -33 68 -64
133 -67 138 -67 138 -186 79z"/>
<path d="M6835 4516 c-152 -68 -258 -123 -265 -137 -12 -22 4 -75 40 -132 16
-26 30 -50 30 -52 0 -3 10 -26 21 -50 34 -72 44 -73 162 -17 56 27 119 57 140
66 39 18 48 46 27 84 -19 35 -98 208 -105 230 -7 26 -10 26 -50 8z"/>
<path d="M7020 4005 c-148 -69 -185 -91 -194 -117 -7 -21 2 -47 54 -152 34
-70 68 -130 76 -133 7 -2 52 15 101 40 48 24 114 56 146 71 36 18 57 34 57 44
-1 28 -134 277 -150 279 -8 2 -49 -13 -90 -32z"/>
<path d="M2335 10413 c-104 -54 -140 -151 -95 -250 38 -85 238 -348 364 -480
63 -67 88 -86 126 -97 113 -34 228 43 238 158 7 90 -29 152 -249 426 -134 167
-189 223 -241 245 -47 19 -104 19 -143 -2z m190 -135 c71 -73 258 -307 322
-405 63 -94 61 -167 -6 -206 -81 -48 -129 -11 -353 274 -152 193 -188 252
-188 306 0 36 6 50 29 74 24 24 38 29 77 29 47 0 51 -2 119 -72z"/>
<path d="M9326 9880 c-174 -193 -316 -354 -316 -359 0 -8 214 -203 229 -209 4
-1 18 9 31 23 l23 25 -68 62 c-37 35 -76 69 -87 76 -10 7 -18 18 -18 24 0 12
228 268 239 268 4 0 40 -30 81 -66 l73 -66 26 27 26 26 -78 72 -78 72 121 133
c67 72 124 132 127 132 3 0 43 -35 90 -77 l84 -76 27 26 c26 27 26 27 7 45
-102 94 -213 192 -218 192 -3 0 -148 -158 -321 -350z"/>
<path d="M1645 9786 l-27 -35 121 -175 c67 -96 121 -177 121 -180 0 -3 -87 38
-194 91 l-194 97 -26 -30 c-14 -16 -26 -32 -26 -35 0 -4 117 -60 259 -125
l260 -119 153 -132 153 -132 23 25 c12 14 22 29 22 34 0 5 -66 66 -147 136
l-148 127 -157 240 c-87 132 -159 242 -162 244 -2 2 -16 -12 -31 -31z"/>
<path d="M9775 9489 c-187 -165 -348 -308 -359 -318 -18 -19 -17 -22 84 -135
56 -64 105 -116 109 -116 3 1 16 9 29 20 28 23 28 23 -60 121 -37 42 -68 78
-68 82 0 3 146 134 325 292 179 158 325 293 325 299 0 7 -10 22 -22 33 l-23
21 -340 -299z"/>
<path d="M1206 9224 c-84 -122 -105 -158 -95 -166 46 -30 46 -30 89 29 23 32
44 58 48 58 4 0 168 -112 366 -249 l359 -249 18 24 c10 13 18 29 16 36 -1 7
-162 123 -357 259 -195 135 -354 251 -352 257 2 7 19 33 38 59 19 27 34 52 34
57 0 7 -43 41 -53 41 -1 0 -52 -70 -111 -156z"/>
<path d="M10112 9042 c-210 -147 -383 -271 -383 -277 -1 -15 164 -254 176
-254 6 0 20 8 33 19 l23 19 -67 96 c-56 82 -65 99 -53 110 8 7 75 56 150 108
l137 95 57 -84 c32 -46 60 -84 62 -84 10 0 53 33 53 41 0 5 -25 43 -55 86 -29
42 -52 80 -49 84 2 4 55 43 117 85 61 43 126 88 144 101 l32 24 67 -95 c37
-53 72 -96 78 -96 6 0 21 8 33 18 l22 17 -87 124 c-49 69 -92 126 -97 127 -6
2 -182 -117 -393 -264z"/>
<path d="M965 8839 c-14 -26 -15 -34 -3 -44 15 -14 802 -465 811 -465 7 0 40
60 35 65 -2 2 -688 396 -820 472 -4 2 -14 -11 -23 -28z"/>
<path d="M10655 8677 c-89 -37 -353 -176 -450 -238 -142 -90 -177 -181 -110
-295 45 -77 142 -105 235 -68 44 18 45 21 28 59 -12 28 -20 30 -50 14 -11 -6
-41 -11 -66 -11 -39 0 -51 5 -74 31 -21 23 -28 42 -28 71 0 77 61 121 395 291
196 99 251 118 298 100 32 -12 67 -65 67 -101 0 -34 -32 -84 -69 -106 -29 -17
-29 -18 -14 -48 9 -17 17 -33 19 -35 1 -2 23 12 49 30 60 43 100 121 90 178
-3 21 -18 57 -32 79 -58 89 -152 105 -288 49z"/>
<path d="M815 8481 c-110 -50 -148 -186 -79 -284 34 -48 142 -110 221 -128 75
-17 113 -3 207 81 86 77 121 90 183 70 69 -23 150 -68 177 -100 32 -38 33 -72
3 -125 -27 -48 -72 -67 -126 -53 -20 5 -45 12 -57 14 -15 4 -23 -1 -32 -21
-18 -38 -16 -41 36 -60 105 -41 185 -16 238 73 72 119 44 212 -87 290 -59 36
-167 72 -212 72 -54 0 -82 -16 -165 -89 -87 -77 -110 -86 -176 -67 -76 23
-144 70 -162 113 -14 33 -14 40 1 79 27 71 94 89 186 50 11 -5 19 1 27 19 20
42 14 51 -39 68 -65 21 -94 21 -144 -2z"/>
<path d="M10869 8131 c-134 -45 -348 -131 -430 -172 -153 -76 -195 -182 -120
-301 35 -55 81 -78 154 -78 68 0 135 21 360 109 331 131 389 175 389 290 -1
57 -12 87 -48 130 -61 73 -137 78 -305 22z m232 -51 c25 -14 49 -62 49 -99 0
-39 -40 -86 -100 -116 -59 -30 -371 -154 -465 -185 -38 -13 -92 -24 -119 -24
-42 0 -52 4 -77 32 -55 62 -34 135 55 187 48 28 328 142 456 186 87 29 167 37
201 19z"/>
<path d="M565 7836 c-53 -24 -78 -62 -116 -179 -20 -62 -36 -113 -35 -114 4
-5 892 -283 903 -283 10 0 37 59 30 66 -1 2 -90 31 -197 65 -107 33 -198 63
-202 65 -4 3 1 28 11 57 l18 52 224 0 224 0 11 35 12 35 -233 3 -233 2 -6 33
c-12 64 -106 127 -241 162 -72 18 -130 19 -170 1z m168 -82 c114 -29 177 -77
177 -134 0 -27 -27 -119 -39 -132 -5 -6 -348 96 -359 106 -10 11 34 124 59
148 33 33 70 36 162 12z"/>
<path d="M10877 7507 l-458 -122 5 -29 c4 -16 7 -31 9 -32 1 -2 155 37 341 87
187 49 340 88 342 86 2 -2 -86 -55 -196 -117 -138 -79 -199 -119 -195 -128 3
-7 5 -18 5 -23 0 -5 109 -10 246 -11 l246 -3 -353 -93 c-195 -52 -355 -94
-356 -95 -7 -8 13 -57 23 -57 23 0 898 232 908 241 5 4 6 19 2 33 l-6 26 -138
1 c-75 1 -202 4 -282 8 l-145 6 240 139 c132 76 241 139 243 141 5 4 -11 65
-17 64 -3 0 -212 -56 -464 -122z"/>
<path d="M306 7075 c-16 -85 -27 -157 -25 -159 5 -4 908 -176 925 -176 7 0 24
64 41 153 32 164 32 164 -23 166 -19 1 -23 -9 -39 -103 -10 -58 -21 -110 -25
-117 -6 -9 -50 -4 -181 21 -96 18 -176 34 -178 36 -1 1 5 46 14 99 19 105 16
115 -31 115 -20 0 -24 -10 -40 -97 -10 -54 -19 -99 -20 -101 -3 -4 -326 57
-345 66 -15 6 -14 17 6 120 12 62 19 114 16 116 -3 2 -20 7 -36 10 l-31 7 -28
-156z"/>
<path d="M10990 6904 c-239 -35 -436 -63 -437 -64 -2 0 -3 -8 -3 -17 1 -45 1
-45 365 7 192 27 353 50 359 50 6 0 -88 -43 -209 -94 -213 -91 -244 -111 -218
-136 4 -5 118 -21 252 -36 166 -19 235 -30 215 -35 -16 -4 -182 -29 -369 -54
-187 -26 -341 -48 -343 -50 -1 -1 1 -15 4 -32 l6 -29 470 67 c258 37 472 69
474 72 3 3 2 16 -2 31 -7 30 14 26 -314 66 -135 17 -249 32 -254 33 -4 2 106
52 245 112 140 60 259 112 265 117 6 4 9 19 6 33 -4 21 -9 25 -41 24 -20 -1
-232 -30 -471 -65z"/>
<path d="M238 6709 c-2 -23 1 -43 7 -45 5 -2 181 -53 390 -113 363 -103 378
-109 330 -115 -27 -3 -196 -17 -375 -31 -424 -33 -390 -27 -390 -75 0 -32 4
-40 18 -40 43 1 943 97 947 101 2 3 6 20 7 39 l3 34 -445 137 c-245 76 -455
140 -466 143 -19 5 -22 1 -26 -35z"/>
<path d="M11125 6299 c-132 -4 -270 -9 -306 -12 -85 -5 -142 -36 -176 -95 -35
-59 -30 -152 10 -206 52 -67 68 -71 287 -70 107 1 297 5 423 9 l227 7 0 40 0
39 -197 -7 c-109 -4 -298 -8 -421 -8 l-223 -1 -30 33 c-51 56 -28 148 43 171
30 9 535 31 736 31 l82 0 0 40 0 40 -107 -2 c-60 0 -216 -5 -348 -9z"/>
<path d="M198 6115 c-4 -32 -2 -35 27 -39 42 -7 915 -29 920 -24 3 2 6 20 7
39 l3 34 -360 11 c-198 7 -412 12 -476 13 l-117 1 -4 -35z"/>
<path d="M645 5869 c-181 -9 -358 -18 -392 -18 l-63 -1 0 -40 c0 -48 -49 -45
400 -21 179 9 326 16 328 15 2 -1 -156 -65 -350 -142 l-353 -140 -3 -41 c-2
-29 1 -41 10 -41 143 4 940 49 944 53 3 3 3 19 -1 36 -6 30 -8 31 -62 31 -30
0 -190 -7 -355 -15 -165 -9 -302 -14 -304 -13 -1 2 155 67 349 143 l352 140 3
38 3 37 -88 -1 c-48 -1 -236 -10 -418 -20z"/>
<path d="M10630 5732 l0 -38 318 -23 c174 -13 337 -27 361 -30 38 -5 1 -17
-328 -101 l-371 -95 -6 -33 c-4 -18 -4 -36 0 -39 7 -8 945 -81 951 -74 3 2 5
19 5 36 0 40 22 37 -392 66 -175 13 -314 26 -310 30 4 4 151 44 327 89 176 45
337 86 357 91 32 8 38 15 44 45 3 19 5 37 2 39 -4 4 -884 75 -932 75 -23 0
-26 -4 -26 -38z"/>
<path d="M615 5254 c-187 -29 -349 -56 -361 -59 -17 -4 -19 -10 -16 -40 3 -22
10 -35 19 -35 8 0 186 27 395 60 219 34 391 57 407 53 116 -28 120 -175 6
-212 -17 -5 -200 -36 -408 -68 l-378 -58 6 -35 c4 -19 8 -36 10 -38 4 -4 705
105 765 119 98 23 160 94 160 183 0 79 -40 144 -107 172 -52 22 -138 15 -498
-42z"/>
<path d="M10568 5195 c-3 -30 -1 -36 16 -40 12 -3 223 -36 471 -75 344 -53
451 -67 457 -57 12 18 10 67 -3 67 -6 0 -213 32 -459 70 -246 39 -455 70 -463
70 -10 0 -16 -13 -19 -35z"/>
<path d="M10619 4984 c-62 -19 -104 -67 -119 -137 -22 -95 14 -161 114 -208
64 -30 67 -30 80 22 5 24 2 28 -39 43 -88 34 -113 115 -56 178 29 32 32 33
103 31 109 -2 506 -93 606 -138 59 -27 86 -71 76 -122 -12 -59 -48 -83 -128
-83 -52 0 -55 -1 -61 -30 -9 -43 0 -50 61 -50 92 0 153 34 185 105 24 53 24
109 -1 161 -25 51 -73 85 -159 114 -122 41 -563 134 -609 129 -4 0 -28 -7 -53
-15z"/>
<path d="M10432 4553 c-6 -20 -9 -39 -7 -43 2 -4 53 -35 113 -70 l109 -64 -35
-105 c-19 -59 -36 -107 -37 -109 -2 -2 -53 4 -114 12 -158 22 -156 23 -169
-21 -6 -20 -10 -38 -8 -40 4 -4 969 -114 971 -111 8 12 27 69 24 72 -15 13
-822 516 -828 516 -4 0 -13 -16 -19 -37z m497 -347 c107 -64 189 -116 184
-116 -20 0 -456 60 -460 63 -3 3 33 112 52 160 4 10 13 16 19 14 6 -3 98 -57
205 -121z"/>
<path d="M1005 4508 c-88 -27 -161 -51 -163 -53 -2 -2 9 -42 24 -89 22 -73 30
-86 48 -86 41 0 47 12 31 65 -9 27 -12 52 -8 56 5 4 62 24 127 44 169 52 229
43 256 -41 16 -47 -11 -101 -65 -131 -49 -28 -431 -154 -538 -178 -44 -10 -92
-14 -111 -11 -44 8 -76 45 -83 94 -7 50 13 82 72 113 39 21 43 27 38 49 -3 14
-9 29 -14 34 -21 23 -141 -62 -161 -114 -16 -41 -11 -115 11 -158 42 -83 121
-112 240 -88 157 32 509 149 596 199 74 42 108 123 86 206 -16 61 -44 96 -94
120 -64 31 -114 26 -292 -31z"/>
<path d="M1070 3899 c-234 -105 -429 -195 -434 -199 -15 -14 14 -71 33 -65 9
2 155 68 325 145 170 77 311 138 313 137 2 -2 -120 -120 -272 -261 -151 -142
-275 -260 -275 -262 0 -8 30 -64 34 -64 8 0 852 382 859 389 6 6 -10 71 -18
71 -2 0 -149 -65 -326 -145 -177 -80 -324 -143 -326 -141 -2 2 120 119 271
260 269 252 275 258 264 284 -7 15 -14 30 -18 34 -3 4 -196 -78 -430 -183z"/>
<path d="M10167 3874 l-17 -35 82 -39 c252 -116 704 -332 710 -338 4 -4 -8
-39 -26 -78 l-34 -71 33 -16 33 -16 87 185 c48 102 86 186 84 188 -10 8 -49
26 -57 26 -5 0 -23 -31 -41 -70 -17 -38 -33 -70 -35 -70 -3 0 -181 83 -397
185 -216 102 -395 185 -399 185 -3 0 -14 -16 -23 -36z"/>
<path d="M10024 3585 c-12 -22 -15 -38 -9 -44 9 -8 718 -406 792 -445 l33 -17
20 33 c11 18 16 36 12 40 -4 3 -173 100 -377 213 -203 114 -389 217 -411 231
l-41 23 -19 -34z"/>
<path d="M1330 3320 c-223 -126 -406 -235 -407 -242 -2 -7 5 -23 15 -36 l18
-23 404 227 c223 125 409 230 414 235 11 10 -13 69 -28 68 -6 0 -193 -104
-416 -229z"/>
<path d="M9892 3329 c-69 -35 -122 -120 -122 -196 0 -95 58 -153 334 -337 203
-136 291 -180 355 -179 142 2 245 168 181 292 -28 57 -104 120 -303 252 -281
188 -353 215 -445 168z m172 -94 c94 -49 400 -259 459 -315 54 -53 57 -59 57
-104 0 -41 -5 -53 -34 -82 -46 -46 -99 -47 -182 -3 -67 36 -332 212 -417 277
-100 76 -124 148 -70 212 48 58 96 61 187 15z"/>
<path d="M1754 3252 c-22 -11 -183 -115 -358 -231 l-317 -212 21 -29 c12 -17
23 -30 26 -30 2 0 150 97 329 216 291 194 330 217 373 222 78 7 131 -44 120
-117 -4 -27 -1 -30 30 -36 19 -3 37 -3 41 0 3 4 6 29 5 56 -1 54 -35 114 -86
152 -40 29 -130 34 -184 9z"/>
<path d="M9622 2987 c-12 -13 -22 -26 -22 -30 0 -4 123 -109 273 -233 149
-125 276 -231 282 -236 5 -5 -49 12 -120 37 -446 159 -605 215 -613 215 -9 0
-56 -60 -50 -64 1 -2 167 -139 367 -305 l364 -302 24 22 c12 13 23 28 23 35 0
7 -116 108 -257 226 -142 117 -266 221 -278 230 -24 21 20 7 433 -141 l283
-100 24 27 c14 15 25 30 25 34 0 8 -705 597 -724 604 -6 2 -22 -6 -34 -19z"/>
<path d="M1756 2691 c-204 -158 -371 -292 -373 -298 -2 -5 6 -21 17 -36 l21
-26 367 285 c202 157 371 292 377 299 7 11 3 21 -15 39 l-25 25 -369 -288z"/>
<path d="M2248 2776 l-27 -24 80 -88 c43 -48 79 -90 78 -93 -1 -7 -192 -181
-239 -220 l-30 -23 -68 72 -68 73 -27 -18 c-15 -9 -27 -21 -27 -25 0 -4 30
-40 66 -79 36 -39 64 -75 62 -79 -1 -5 -61 -62 -132 -127 l-129 -119 -83 89
-83 90 -27 -27 -27 -27 108 -116 c106 -113 108 -115 129 -98 11 10 170 155
353 322 274 249 331 306 323 320 -5 9 -54 62 -107 118 l-98 103 -27 -24z"/>
<path d="M9260 2554 c-45 -19 -106 -79 -131 -126 -23 -46 -25 -118 -3 -161 26
-49 154 -177 199 -198 60 -28 102 -23 209 21 119 49 151 51 207 7 66 -50 104
-110 104 -164 0 -39 -5 -49 -37 -79 -53 -48 -99 -49 -165 -4 l-41 28 -29 -30
-28 -30 40 -34 c22 -18 55 -39 74 -45 112 -38 257 64 269 190 6 69 -30 143
-106 212 -101 93 -144 98 -291 39 -54 -22 -112 -40 -129 -40 -34 0 -90 38
-150 104 -76 83 -79 139 -12 200 55 50 109 51 166 2 l39 -34 33 27 32 27 -38
36 c-70 68 -138 84 -212 52z"/>
<path d="M2545 2351 c-51 -23 -162 -141 -187 -199 -15 -33 -19 -59 -16 -99 4
-47 3 -53 -13 -48 -9 3 -39 0 -66 -6 -38 -10 -61 -25 -109 -74 -96 -97 -127
-191 -89 -264 13 -27 172 -181 186 -181 8 0 618 697 625 713 5 13 -128 131
-179 159 -42 22 -102 22 -152 -1z m129 -76 c18 -9 48 -31 66 -50 l33 -34 -85
-98 c-47 -54 -104 -118 -125 -142 l-40 -45 -41 33 c-51 42 -76 91 -68 136 14
75 150 215 209 215 10 0 34 -7 51 -15z m-298 -348 c12 -7 38 -27 59 -45 33
-30 36 -35 23 -50 -74 -87 -212 -242 -216 -242 -9 0 -78 64 -94 89 -27 40 -22
73 22 139 65 97 149 142 206 109z"/>
<path d="M8294 1836 c-3 -8 -1 -31 5 -52 5 -22 13 -66 17 -100 l6 -61 -48 -27
c-47 -26 -48 -26 -68 -7 -50 46 -160 121 -177 121 -14 0 -19 -7 -19 -30 0 -25
11 -38 75 -86 42 -32 72 -60 68 -64 -4 -4 -32 -20 -60 -36 -44 -24 -56 -27
-70 -17 -69 48 -155 94 -168 89 -16 -6 -20 -34 -7 -52 4 -6 34 -28 67 -49 l59
-37 -37 -20 c-42 -21 -60 -56 -51 -96 10 -38 86 -171 102 -177 43 -16 41 31
-3 113 -20 35 -35 68 -33 73 2 5 120 74 262 154 194 108 262 142 272 134 13
-11 37 -78 49 -136 7 -36 32 -50 52 -30 12 12 12 23 -2 77 -18 69 -45 129 -70
154 -20 20 -75 21 -101 1 -34 -26 -41 -17 -48 54 -8 90 -20 121 -46 121 -11 0
-23 -6 -26 -14z"/>
<path d="M3701 1609 c-29 -55 -56 -99 -59 -97 -4 2 -45 23 -91 46 -71 37 -88
42 -108 33 -45 -21 -30 -38 85 -95 l92 -46 -70 -140 -71 -139 -92 -30 c-51
-16 -119 -34 -152 -40 -61 -11 -92 -31 -81 -50 4 -6 20 -11 36 -11 37 0 153
25 207 44 l43 15 -55 -109 c-30 -60 -55 -116 -55 -125 0 -24 47 -19 64 8 32
51 416 811 416 823 0 9 -11 14 -28 14 -26 0 -34 -9 -81 -101z"/>
<path d="M3923 1618 c-20 -26 -391 -764 -397 -790 -11 -46 12 -77 86 -114 95
-48 130 -46 184 10 48 50 119 170 109 186 -3 5 -17 10 -30 10 -18 0 -30 -13
-54 -54 -37 -67 -88 -126 -107 -126 -8 0 -37 11 -64 25 -72 37 -70 50 53 289
l102 199 85 27 c153 49 240 96 240 130 0 30 -36 25 -112 -15 -37 -20 -92 -44
-122 -55 l-56 -19 71 141 c39 77 68 147 65 154 -7 17 -40 18 -53 2z"/>
<path d="M8213 1373 c-158 -89 -173 -99 -173 -124 0 -52 29 -45 191 46 83 47
154 83 156 81 3 -2 -11 -28 -31 -58 -42 -62 -47 -110 -16 -143 l21 -22 -141
-78 c-127 -72 -140 -81 -140 -106 0 -53 29 -46 201 52 l163 92 33 -39 c18 -22
43 -58 55 -81 18 -34 20 -45 10 -67 -19 -41 -59 -61 -127 -61 -57 0 -60 -1
-60 -25 0 -35 38 -52 103 -46 162 15 200 157 82 306 -16 21 -30 40 -30 43 0 3
52 34 115 69 110 60 115 64 113 93 -2 19 -9 31 -21 33 -10 2 -76 -28 -146 -68
-118 -65 -131 -70 -155 -59 -14 7 -26 16 -26 20 0 4 18 41 40 81 57 105 54
158 -9 158 -27 0 -79 -24 -208 -97z"/>
<path d="M7256 1372 c-3 -10 7 -62 23 -116 27 -89 28 -99 13 -103 -9 -2 -78
-24 -152 -47 -134 -41 -135 -42 -135 -71 0 -44 31 -43 186 5 73 22 134 38 136
36 11 -11 23 -89 29 -181 11 -174 -38 -344 -129 -453 -21 -24 -37 -50 -37 -57
0 -64 48 -60 99 8 87 115 131 261 131 437 l0 101 60 -79 c89 -119 197 -214
294 -262 44 -22 97 -41 116 -42 34 -3 35 -2 35 32 0 32 -3 35 -42 46 -135 39
-285 170 -406 355 -38 57 -69 109 -69 114 1 6 74 33 164 60 163 51 163 51 163
80 0 45 -31 43 -206 -11 -121 -37 -154 -44 -158 -33 -3 8 -19 55 -36 104 -24
73 -34 91 -52 93 -14 2 -23 -3 -27 -16z"/>
<path d="M4621 1367 c-6 -8 -8 -33 -4 -65 3 -29 2 -52 -2 -52 -4 0 -66 16
-137 36 -149 41 -183 41 -183 4 0 -24 9 -27 335 -117 184 -51 346 -91 360 -90
19 2 26 8 28 29 3 24 -1 28 -40 38 -24 7 -97 27 -163 44 l-120 33 -6 64 c-3
36 -9 70 -13 77 -10 16 -41 15 -55 -1z"/>
<path d="M5357 1223 c-3 -4 -8 -45 -12 -90 l-7 -83 -69 0 c-61 0 -70 -3 -84
-23 -11 -17 -21 -109 -40 -350 -14 -180 -25 -338 -25 -352 0 -52 23 -61 194
-73 86 -6 163 -9 171 -6 7 3 17 13 21 22 9 22 61 690 56 720 -6 30 -50 52
-108 52 l-46 0 3 93 4 92 -27 3 c-14 2 -28 0 -31 -5z m-31 -355 c-11 -180 -10
-178 -62 -178 -23 0 -45 3 -47 8 -4 8 11 225 18 260 5 19 12 22 51 22 l47 0
-7 -112z m162 90 c7 -9 7 -57 -1 -151 -8 -112 -13 -137 -24 -132 -8 3 -31 5
-50 5 l-36 0 7 83 c3 45 9 110 12 145 l6 62 38 0 c21 0 42 -6 48 -12z m-184
-390 c-3 -29 -8 -96 -12 -148 l-7 -95 -40 3 c-22 2 -44 6 -49 9 -8 5 0 200 10
256 5 25 9 27 54 27 l49 0 -5 -52z m161 -65 c-4 -60 -10 -126 -14 -148 l-7
-40 -44 3 c-24 2 -45 4 -46 5 -2 1 2 66 8 145 l11 142 50 0 49 0 -7 -107z"/>
<path d="M6383 1209 c-8 -8 -10 -31 -6 -69 l6 -57 -34 -6 c-19 -3 -72 -9 -118
-13 -70 -6 -89 -11 -108 -30 -28 -28 -28 -20 2 -299 17 -158 30 -236 41 -253
18 -27 10 -27 220 -6 l61 6 7 -68 c9 -90 23 -132 48 -145 22 -12 303 14 346
31 34 14 52 69 52 153 0 79 -12 102 -47 95 -15 -3 -19 -17 -23 -86 -5 -83 -14
-101 -50 -102 -8 -1 -64 -7 -123 -14 -83 -9 -110 -10 -118 0 -5 6 -13 41 -17
77 l-8 65 30 6 c17 3 67 8 111 12 44 4 90 10 103 15 42 16 43 43 15 306 -32
298 -27 289 -142 279 -42 -4 -99 -9 -128 -13 l-51 -6 -7 49 c-9 75 -33 102
-62 73z m294 -181 c6 -7 13 -47 17 -89 l7 -76 -108 -10 c-60 -6 -111 -8 -114
-4 -4 3 -10 43 -13 87 l-7 82 93 9 c51 6 98 11 104 12 6 0 16 -5 21 -11z
m-283 -55 c3 -21 8 -61 11 -89 l7 -51 -74 -7 c-40 -4 -91 -9 -114 -12 l-41 -6
-7 78 c-5 58 -4 80 6 90 7 7 51 17 98 22 47 5 90 10 97 11 6 0 14 -16 17 -36z
m321 -235 c3 -29 7 -75 8 -103 l2 -50 -60 -7 c-33 -3 -82 -8 -110 -10 l-50 -3
-10 102 -10 102 55 6 c30 3 64 7 75 9 11 2 37 4 57 5 l37 1 6 -52z m-291 -40
c4 -35 9 -81 12 -104 l6 -41 -104 -10 c-73 -7 -106 -7 -114 1 -10 9 -37 186
-30 193 3 3 154 20 192 22 31 1 31 1 38 -61z"/>
<path d="M5632 1145 c-12 -15 -22 -35 -22 -44 0 -9 -14 -206 -31 -438 -18
-232 -29 -429 -26 -437 4 -9 16 -16 27 -16 23 0 40 34 40 81 0 16 1 29 3 29 1
0 24 -11 51 -25 187 -95 276 112 156 362 -22 45 -40 85 -40 89 0 3 16 48 35
99 48 129 78 242 71 271 -9 34 -29 41 -142 49 l-101 7 -21 -27z m185 -59 c10
-10 -18 -117 -58 -221 -21 -55 -39 -110 -39 -123 0 -12 20 -65 45 -116 50
-104 64 -173 45 -230 -20 -60 -60 -68 -122 -24 -16 11 -36 17 -46 14 -16 -6
-16 14 9 342 14 191 29 354 34 361 6 10 24 12 67 8 33 -3 62 -8 65 -11z"/>
<path d="M4337 1149 c-26 -15 -42 -54 -68 -161 -34 -142 -32 -144 111 -183 93
-25 115 -34 114 -48 -3 -28 -66 -261 -74 -270 -4 -4 -28 8 -54 27 -46 36 -79
45 -91 25 -14 -21 6 -56 49 -87 52 -38 122 -44 148 -14 8 9 32 80 53 157 20
77 41 144 45 148 4 5 51 -3 104 -17 104 -29 139 -27 160 8 7 11 26 69 41 128
29 111 28 150 -3 167 -28 15 -466 131 -493 131 -13 0 -32 -5 -42 -11z m267
-113 c109 -30 205 -60 212 -68 10 -11 8 -29 -11 -102 -13 -49 -26 -90 -28 -92
-2 -3 -104 23 -226 56 -122 33 -225 60 -228 60 -8 0 5 62 28 136 14 46 25 64
37 64 9 0 107 -25 216 -54z"/>
<path d="M4310 735 c-19 -20 -77 -71 -128 -112 -70 -58 -92 -81 -90 -97 8 -53
72 -17 213 116 63 59 85 87 83 102 -5 35 -40 31 -78 -9z"/>
<path d="M4636 674 c-3 -9 11 -71 33 -137 21 -67 42 -136 45 -154 9 -40 29
-57 57 -48 19 6 21 12 16 54 -6 52 -73 269 -89 289 -15 17 -55 15 -62 -4z"/>
</g>
</svg>
